<svg width="16" height="16" viewBox="0 0 16 16" fill="none" xmlns="http://www.w3.org/2000/svg">
<path fill-rule="evenodd" clip-rule="evenodd" d="M4.56242 4.81236V7.62473H3.78121H3V8.2497V8.87467H3.78121H4.56242V9.42151V9.96836H3.78121H3V10.5933V11.2183H3.78121H4.56242V12.2339V13.2495H5.34364H6.12485V12.2339V11.2183H7.37479H8.62473V10.5933V9.96836H7.37479H6.12485V9.42151V8.87467H8.02069C10.3507 8.87467 10.9873 8.69702 11.9282 7.78394C13.4146 6.34151 13.3479 4.2638 11.7719 2.9148C10.8379 2.11515 10.2671 2 7.23948 2H4.56242V4.81236ZM10.2992 3.51086C10.6015 3.65429 10.981 3.98834 11.1424 4.25302C11.5249 4.88017 11.5249 5.99449 11.1424 6.62165C10.6565 7.41864 9.99778 7.62473 7.9371 7.62473H6.12485V5.43733V3.24994H7.9371C9.30626 3.24994 9.88373 3.31369 10.2992 3.51086Z" fill="#222222"/>
</svg>
